:SAMPLES-PER-SECOND 30
:FULLY-SPECIFIED
:DEGREES
545
root  34.0228 38.5874 26.6938 151.905 78.6054 160.825
RightUpLeg  -16.5049 7.83009 -9.73799
RightLeg  34.4346 1.7925 1.07806
RightFoot  -2.65063 -0.522662 6.63117
RightToes  5.82063e-011 0 -3.6325e-017
Spine  8.4639 -0.0411896 -6.42364
Spine1  8.05539 -0.0986216 -3.71531
HEad  -4.28815 5.47595 -3.30083
LeftShoulder1  -0.126664 3.85312 -30.0869
LeftArm  16.3703 -8.60577 -47.3483
LeftForeArm  8.49923 -21.0189 -5.19807
LeftHand  -0.00935903 5.93689 3.81806
RightShoulder  -0.488088 -4.95926 26.6912
RightArm  18.8339 -4.42405 46.7343
RightForeArm  2.87245 18.499 5.17735
RightHand  -0.396991 4.58303 -4.90095
LeftUpLeg  4.43577 5.6586 -9.07322
LeftLeg  17.3051 8.48926 1.77971
LeftFoot  -12.4933 0.166933 9.08905
LeftToes  1.68253e-010 -3.2327e-011 -2.69673e-012
546
root  34.9056 38.562 26.4965 152.818 77.7482 161.34
RightUpLeg  -16.2229 6.73192 -9.60399
RightLeg  23.5917 3.38451 1.441
RightFoot  -2.9231 -0.590431 7.74922
RightToes  5.82063e-011 0 -3.6325e-017
Spine  8.19919 -0.239159 -5.98654
Spine1  7.73283 -0.111308 -3.68052
HEad  -4.37109 4.82304 -3.18743
LeftShoulder1  -0.0663397 3.68922 -29.6888
LeftArm  17.9831 -9.27623 -47.8965
LeftForeArm  8.35693 -22.8891 -4.59198
LeftHand  -0.0204934 5.73565 2.71837
RightShoulder  -0.458511 -4.86991 26.6827
RightArm  21.0689 -4.86759 46.2555
RightForeArm  2.42254 18.0121 5.51102
RightHand  -0.445172 5.49781 -5.04536
LeftUpLeg  5.97321 5.69994 -9.15562
LeftLeg  16.5647 7.69803 1.40408
LeftFoot  -13.6393 0.26162 8.93777
LeftToes  1.68253e-010 -3.2327e-011 -2.69673e-012
547
root  35.8359 38.5237 26.2587 152.243 77.2391 160.385
RightUpLeg  -15.3919 1.7101 -8.62699
RightLeg  12.8437 7.1009 1.32312
RightFoot  -3.38877 -0.677189 9.38187
RightToes  5.82063e-011 0 -3.6325e-017
Spine  7.40876 -0.227064 -5.14205
Spine1  8.18694 0.203898 -3.96728
HEad  -4.3038 3.99035 -2.77497
LeftShoulder1  -0.0697593 3.69793 -29.7942
LeftArm  18.3846 -10.1006 -48.2471
LeftForeArm  9.0062 -23.8425 -4.61993
LeftHand  -0.0487383 4.36131 3.16288
RightShoulder  -0.483964 -4.94225 26.7876
RightArm  23.1878 -5.39467 45.8858
RightForeArm  3.09715 17.6639 5.80068
RightHand  -0.350377 4.81614 -4.28652
LeftUpLeg  7.8807 5.56783 -9.5143
LeftLeg  15.2964 7.46114 1.12823
LeftFoot  -14.6614 0.338342 8.60662
LeftToes  1.68253e-010 -3.2327e-011 -2.69673e-012
548
root  36.785 38.455 26.0328 152.681 76.8657 160.251
RightUpLeg  -14.9696 -6.57138 -6.12572
RightLeg  3.89308 11.7347 0.397132
RightFoot  -3.41119 -0.796206 11.1136
RightToes  5.82063e-011 0 -3.6325e-017
Spine  6.82166 -0.292441 -4.2393
Spine1  8.11293 0.329527 -4.09978
HEad  -4.07486 3.56336 -2.31427
LeftShoulder1  -0.121652 3.8423 -29.7979
LeftArm  18.7679 -10.1423 -48.3021
LeftForeArm  9.55799 -24.7407 -4.79417
LeftHand  -0.0400944 4.72688 3.05519
RightShoulder  -0.536667 -5.07782 27.3022
RightArm  25.1688 -5.8385 45.5027
RightForeArm  2.81826 16.8664 6.3388
RightHand  -0.329888 4.88101 -3.9906
LeftUpLeg  9.46484 5.84484 -9.34568
LeftLeg  14.3398 6.71931 0.535394
LeftFoot  -15.8087 0.422764 8.37795
LeftToes  1.68253e-010 -3.2327e-011 -2.69673e-012
549
root  37.8189 38.2851 25.8159 152.611 76.5706 159.769
RightUpLeg  -14.6814 -7.16397 -5.33328
RightLeg  -1.61073 6.71211 0.214534
RightFoot  -3.18056 -0.847228 11.55
RightToes  5.82063e-011 0 -3.6325e-017
Spine  6.23372 -0.24596 -3.39795
Spine1  8.12747 0.533113 -4.34251
HEad  -4.47125 3.53655 -2.69237
LeftShoulder1  -0.0905801 3.75507 -29.8663
LeftArm  19.4203 -9.81693 -48.3458
LeftForeArm  9.55214 -24.9428 -4.83988
LeftHand  -0.032229 5.11197 2.86172
RightShoulder  -0.545605 -5.09768 27.4451
RightArm  25.3272 -6.90161 45.6169
RightForeArm  4.59889 16.2501 6.58979
RightHand  -0.217452 4.01397 -2.9471
LeftUpLeg  10.8648 6.09157 -9.33894
LeftLeg  14.4114 6.20067 0.43565
LeftFoot  -17.4072 0.53338 8.08076
LeftToes  1.68253e-010 -3.2327e-011 -2.69673e-012
550
root  38.911 38.0695 25.5724 150.488 76.4243 158.079
RightUpLeg  -14.8451 -6.85564 -4.92816
RightLeg  -0.39949 4.1054 0.374342
RightFoot  -2.44234 -0.828063 10.3367
RightToes  5.82063e-011 0 -3.6325e-017
Spine  6.43032 -0.112948 -2.85634
Spine1  8.3472 0.656223 -4.30203
HEad  -4.68292 3.1769 -3.07756
LeftShoulder1  -0.0962673 3.76595 -30.633
LeftArm  19.7569 -9.02069 -47.6273
LeftForeArm  9.38137 -24.8438 -4.81943
LeftHand  -0.0272618 5.41136 2.66618
RightShoulder  -0.523997 -5.02622 27.5963
RightArm  24.7772 -7.88613 45.8831
RightForeArm  4.99713 15.0249 7.15856
RightHand  -0.369118 5.30443 -4.31291
LeftUpLeg  13.4663 6.03293 -9.89209
LeftLeg  14.0511 6.54896 0.857672
LeftFoot  -18.9006 0.605911 7.44166
LeftToes  1.68253e-010 -3.2327e-011 -2.69673e-012
551
root  40.0638 37.8062 25.3317 151.855 76.2837 159.206
RightUpLeg  -16.2181 -6.98503 -3.99773
RightLeg  4.64698 2.32921 0.989283
RightFoot  -1.48115 -0.697269 8.09827
RightToes  5.82063e-011 0 -3.6325e-017
Spine  5.66154 -0.268413 -1.64654
Spine1  8.91413 0.591937 -4.41882
HEad  -5.29651 3.278 -3.59594
LeftShoulder1  -0.0516898 3.64282 -30.8306
LeftArm  20.1875 -7.78218 -47.3369
LeftForeArm  8.07442 -23.8164 -4.69349
LeftHand  -0.0309173 5.19485 3.77634
RightShoulder  -0.578739 -5.17155 27.9446
RightArm  23.441 -8.6328 46.2339
RightForeArm  6.61133 13.8071 7.54855
RightHand  -0.455648 5.52581 -5.15708
LeftUpLeg  14.9859 6.12935 -9.6884
LeftLeg  14.6327 6.33308 1.33283
LeftFoot  -20.8529 0.710991 7.02049
LeftToes  1.68253e-010 -3.2327e-011 -2.69673e-012
552
root  41.2177 37.6921 25.0992 157.116 75.8753 164.148
RightUpLeg  -17.9834 -7.3754 -2.27583
RightLeg  10.3172 2.09705 0.934336
RightFoot  2.32965 -0.158488 1.58841
RightToes  5.82063e-011 0 -3.6325e-017
Spine  5.22978 -0.724039 -0.123783
Spine1  8.92336 -0.0939673 -3.24456
HEad  -4.68542 3.39578 -3.9401
LeftShoulder1  -0.129891 3.8508 -31.3424
LeftArm  21.2218 -6.41139 -46.7722
LeftForeArm  7.39305 -21.9061 -4.97893
LeftHand  -0.0288723 5.24914 2.70323
RightShoulder  -0.593521 -5.21269 27.97
RightArm  22.8893 -10.0586 46.1914
RightForeArm  7.14956 13.5572 7.54669
RightHand  -0.404661 5.04044 -4.80231
LeftUpLeg  16.7007 5.89802 -8.50674
LeftLeg  14.3693 5.62991 1.61619
LeftFoot  -21.9533 0.735018 6.48749
LeftToes  1.68253e-010 -3.2327e-011 -2.69673e-012
553
root  42.4674 37.5575 24.8474 164.335 75.0936 171.428
RightUpLeg  -19.0996 -7.86247 -0.583312
RightLeg  15.0581 1.55942 0.642976
RightFoot  6.70781 0.344738 -1.99762
RightToes  5.82063e-011 0 -3.6325e-017
Spine  5.13603 -1.29036 1.92027
Spine1  8.5692 -0.898414 -2.29481
HEad  -4.87198 4.43557 -4.44332
LeftShoulder1  -0.0719617 3.69577 -31.3495
LeftArm  18.7752 -4.52482 -46.713
LeftForeArm  9.98427 -18.9537 -6.49512
LeftHand  -0.0255732 5.43355 3.39006
RightShoulder  -0.689811 -5.4582 28.6159
RightArm  22.8182 -11.8103 45.2241
RightForeArm  5.98392 14.1548 7.22657
RightHand  -0.435752 5.38413 -5.00055
LeftUpLeg  18.2764 5.17705 -6.68329
LeftLeg  15.4603 4.80806 2.01155
LeftFoot  -23.0834 0.671931 5.19213
LeftToes  1.68253e-010 -3.2327e-011 -2.69673e-012
554
root  43.7616 37.3546 24.5762 168.36 75.3384 176.006
RightUpLeg  -19.9994 -7.25118 0.686957
RightLeg  21.5192 1.47991 0.387377
RightFoot  4.57568 0.468181 -3.11167
RightToes  5.82063e-011 0 -3.6325e-017
Spine  5.53438 -1.48568 3.71387
Spine1  8.37629 -1.13197 -1.94897
HEad  -6.54868 4.53649 -4.96778
LeftShoulder1  -0.0979159 3.76418 -31.4367
LeftArm  13.2018 -2.84121 -46.5019
LeftForeArm  16.0589 -15.4641 -8.40212
LeftHand  -0.0238531 5.69852 1.80594
RightShoulder  -0.751487 -5.61186 28.9978
RightArm  22.1045 -12.6201 44.5805
RightForeArm  6.08475 14.3044 7.01587
RightHand  -0.441593 6.19039 -4.75227
LeftUpLeg  19.7077 5.08193 -4.93729
LeftLeg  18.1709 4.03065 1.92773
LeftFoot  -23.858 0.470795 2.9855
LeftToes  1.68253e-010 -3.2327e-011 -2.69673e-012
555
root  45.0215 37.2202 24.3047 171.459 75.7988 179.579
RightUpLeg  -19.6045 -5.96457 1.47676
RightLeg  25.5572 0.842517 0.221505
RightFoot  2.38552 0.502004 -4.05999
RightToes  5.82063e-011 0 -3.6325e-017
Spine  6.02081 -1.66331 5.58327
Spine1  8.21077 -1.22889 -1.60875
HEad  -6.89331 4.19525 -5.20769
LeftShoulder1  -0.0103004 3.53167 -31.214
LeftArm  7.16068 -0.589268 -46.2604
LeftForeArm  21.7082 -11.7059 -9.84559
LeftHand  -0.0267996 6.00899 0.823358
RightShoulder  -0.779481 -5.66987 29.3488
RightArm  21.556 -12.9837 43.7827
RightForeArm  6.61224 14.2076 6.90887
RightHand  -0.355524 6.43422 -3.81933
LeftUpLeg  20.4516 5.14539 -3.43178
LeftLeg  21.8193 3.09397 1.69213
LeftFoot  -23.3511 0.099936 -0.393283
LeftToes  1.68253e-010 -3.2327e-011 -2.69673e-012
556
root  46.1953 37.1642 24.0615 177.307 75.4788 -174.767
RightUpLeg  -19.3354 -6.49962 2.94152
RightLeg  28.2444 0.715627 0.181495
RightFoot  0.00949294 0.557039 -5.56577
RightToes  5.82063e-011 0 -3.6325e-017
Spine  6.35356 -2.1948 7.64667
Spine1  7.32103 -1.72602 -0.483339
HEad  -7.41599 5.31167 -5.99857
LeftShoulder1  -0.00272299 3.51086 -31.6191
LeftArm  2.11082 1.41877 -45.343
LeftForeArm  26.9801 -7.65261 -10.7373
LeftHand  -0.0340068 7.24732 0.387933
RightShoulder  -0.74099 -5.5778 29.0659
RightArm  21.5443 -13.9468 43.2159
RightForeArm  5.29486 14.9138 6.60087
RightHand  -0.449799 6.73155 -4.65191
LeftUpLeg  18.5511 5.48133 -0.872779
LeftLeg  28.3773 1.20088 0.995397
LeftFoot  -21.0839 -0.27571 -4.83875
LeftToes  1.68253e-010 -3.2327e-011 -2.69673e-012
